<svg width="629" height="446" viewBox="0 0 629 446" fill="none" xmlns="http://www.w3.org/2000/svg">
<path d="M236.052 434.564C348.465 434.564 439.593 342.404 439.593 228.718C439.593 115.032 348.465 22.8718 236.052 22.8718C123.639 22.8718 32.5101 115.032 32.5101 228.718C32.5101 342.404 123.639 434.564 236.052 434.564Z" fill="#F2F2F2"/>
<path d="M268.715 260.106C223.897 329.975 236.177 418.84 236.177 418.84C236.177 418.84 321.121 394.424 365.939 324.555C410.757 254.685 398.477 165.821 398.477 165.821C398.477 165.821 313.533 190.236 268.715 260.106Z" fill="#3F3D56"/>
<path d="M236.039 417.41C236.039 417.41 234.942 417.234 232.922 416.823C231.311 416.494 229.092 416.024 226.384 415.377C202.17 409.631 137.793 390.205 95.7046 339.133C43.0266 275.181 45.2448 185.833 45.2448 185.833C45.2448 185.833 125.791 199.007 178.866 256.437C181.166 258.905 183.404 261.463 185.579 264.111C231.416 319.755 235.689 394.624 236.027 413.133C236.074 415.906 236.039 417.41 236.039 417.41Z" fill="#222F65"/>
<path fill-rule="evenodd" clip-rule="evenodd" d="M203.389 260.106C248.206 329.975 235.926 418.84 235.926 418.84C235.926 418.84 150.982 394.424 106.164 324.555C61.3465 254.685 73.6266 165.821 73.6266 165.821C73.6266 165.821 158.571 190.236 203.389 260.106Z" stroke="#3F3D56" stroke-width="2"/>
<path opacity="0.1" d="M236.052 414.631C234.864 416.082 233.817 417.321 232.956 418.336C231.047 420.542 229.964 421.699 229.964 421.699C229.964 421.699 228.649 420.023 226.438 416.885C214.298 399.73 175.25 338.73 178.264 268.269C178.427 264.576 178.695 260.922 179.067 257.308C181.36 259.785 183.591 262.353 185.76 265.012C231.454 320.879 235.714 396.048 236.052 414.631Z" fill="black"/>
<path d="M303.734 273.434C300.16 356.724 238.768 421.699 238.768 421.699C238.768 421.699 183.171 351.633 186.745 268.342C190.319 185.051 251.711 120.077 251.711 120.077C251.711 120.077 307.308 190.143 303.734 273.434Z" fill="#222F65"/>
<path d="M238.879 418.84L251.6 122.936" stroke="#3F3D56" stroke-width="2"/>
<path d="M314.5 446C488.194 446 629 437.04 629 425.987C629 414.934 488.194 405.974 314.5 405.974C140.806 405.974 0 414.934 0 425.987C0 437.04 140.806 446 314.5 446Z" fill="#3F3D56"/>
<path d="M52.2989 418.84V338.788Z" fill="#3F3D56"/>
<path d="M52.2989 418.84V338.788" stroke="#3F3D56" stroke-width="2"/>
<path d="M52.2989 350.224C58.5441 350.224 63.6068 345.104 63.6068 338.788C63.6068 332.473 58.5441 327.353 52.2989 327.353C46.0537 327.353 40.991 332.473 40.991 338.788C40.991 345.104 46.0537 350.224 52.2989 350.224Z" fill="#3F3D56"/>
<path d="M52.2989 388.821C52.2989 388.821 50.7211 353.61 18.3753 357.703Z" fill="#3F3D56"/>
<path d="M322.274 288.756V65.7563Z" fill="#3F3D56"/>
<path d="M322.274 288.756V65.7563" stroke="#3F3D56" stroke-width="2"/>
<path d="M322.274 82.9103C330.861 82.9103 337.822 75.8702 337.822 67.1859C337.822 58.5016 330.861 51.4615 322.274 51.4615C313.687 51.4615 306.726 58.5016 306.726 67.1859C306.726 75.8702 313.687 82.9103 322.274 82.9103Z" fill="#3F3D56"/>
<path d="M322.274 130.083C322.274 130.083 320.105 82.0691 275.629 87.6501Z" fill="#3F3D56"/>
<path d="M506.431 165.821L493.177 191.029C493.177 191.029 397.341 209.55 409.576 238.36C421.81 267.17 435.574 309.356 442.71 308.327C449.847 307.298 489.099 284.662 490.628 277.974C492.157 271.286 455.454 239.903 455.454 239.903L516.116 228.071C516.116 228.071 524.782 269.228 513.567 297.523C502.353 325.819 495.726 402.474 503.372 403.503C511.019 404.532 530.39 410.705 539.056 405.046C547.722 399.387 551.8 275.401 551.8 275.401C551.8 275.401 570.151 194.116 558.936 184.856C547.722 175.595 506.431 165.821 506.431 165.821Z" fill="#2F2E41"/>
<path d="M527.147 392.047C527.147 392.047 515.304 385.723 512.811 390.782C512.811 390.782 514.681 405.96 507.201 407.857C499.721 409.754 496.605 423.035 507.201 424.3C517.798 425.564 524.654 421.77 528.394 421.77C532.134 421.77 528.394 408.49 528.394 408.49L527.147 392.047Z" fill="#2F2E41"/>
<path d="M470.64 288.521C470.64 288.521 457.737 284.86 456.35 290.358C456.35 290.358 461.337 304.844 454.413 308.31C447.489 311.777 447.203 325.472 457.834 324.438C468.465 323.404 474.384 318.21 478.044 317.407C481.703 316.604 475.281 304.381 475.281 304.381L470.64 288.521Z" fill="#2F2E41"/>
<path d="M534.856 76.9903C534.856 76.9903 535.359 96.1882 531.835 97.7448C528.31 99.3014 551.471 108.641 551.471 108.641L555.499 101.377C555.499 101.377 550.967 75.4337 551.974 73.3582C552.981 71.2827 534.856 76.9903 534.856 76.9903Z" fill="#9F616A"/>
<path d="M542.778 81.4808C559.952 81.4808 573.874 67.4007 573.874 50.0321C573.874 32.6634 559.952 18.5834 542.778 18.5834C525.603 18.5834 511.681 32.6634 511.681 50.0321C511.681 67.4007 525.603 81.4808 542.778 81.4808Z" fill="#2F2E41"/>
<path d="M545.604 32.8782C552.63 32.8782 558.326 27.1182 558.326 20.0128C558.326 12.9075 552.63 7.14746 545.604 7.14746C538.579 7.14746 532.883 12.9075 532.883 20.0128C532.883 27.1182 538.579 32.8782 545.604 32.8782Z" fill="#2F2E41"/>
<path d="M528.483 12.8654C528.483 6.27892 533.433 0.756261 539.951 0.0695631C539.508 0.0233335 539.062 0.00011494 538.617 0C531.547 0 525.816 5.76003 525.816 12.8654C525.816 19.9707 531.547 25.7308 538.617 25.7308C539.062 25.7307 539.508 25.7074 539.951 25.6612C533.433 24.9745 528.483 19.4518 528.483 12.8654V12.8654Z" fill="#2F2E41"/>
<path d="M541.364 87.1987C553.074 87.1987 562.566 77.5987 562.566 65.7564C562.566 53.9141 553.074 44.3141 541.364 44.3141C529.654 44.3141 520.162 53.9141 520.162 65.7564C520.162 77.5987 529.654 87.1987 541.364 87.1987Z" fill="#9F616A"/>
<path d="M557.267 94.0736C557.267 94.0736 538.956 99.7063 529.801 94.0736C520.646 88.441 498.775 104.827 495.215 111.996C491.654 119.165 508.439 126.333 508.439 126.333C508.439 126.333 503.646 140.177 504.624 147.072C505.642 154.241 503.861 168.834 503.861 168.834C503.861 168.834 548.796 198.639 558.793 185.22C560.319 183.172 573.034 135.038 573.034 135.038L590.836 117.116C590.836 117.116 579.646 100.73 573.034 99.1942C566.422 97.658 557.267 94.0736 557.267 94.0736Z" fill="#D0CDE1"/>
<path d="M433.85 198.699C433.85 198.699 399.569 217.051 406.627 222.294C413.685 227.538 442.42 201.845 442.42 201.845L433.85 198.699Z" fill="#9F616A"/>
<path d="M569.524 185.746C569.524 185.746 553.982 174.715 551.479 180.23C548.977 185.746 568.496 198.165 572.606 193.305C576.715 188.446 569.524 185.746 569.524 185.746Z" fill="#9F616A"/>
<path d="M582.028 110.071L591.092 115.772C591.092 115.772 621.812 159.308 611.236 169.156C600.661 179.004 573.467 198.699 573.467 198.699C573.467 198.699 564.402 185.223 567.423 184.705C570.445 184.187 594.618 163.455 594.618 163.455L573.467 123.028L582.028 110.071Z" fill="#D0CDE1"/>
<path d="M500.627 108.641L494.03 111.229L476.779 142.804L431.112 199.225C431.112 199.225 437.201 209.06 442.275 206.989C447.349 204.919 485.405 161.438 485.405 161.438L510.267 122.099L500.627 108.641Z" fill="#D0CDE1"/>
<path d="M543.484 52.891C555.584 52.891 565.393 47.131 565.393 40.0257C565.393 32.9203 555.584 27.1603 543.484 27.1603C531.384 27.1603 521.575 32.9203 521.575 40.0257C521.575 47.131 531.384 52.891 543.484 52.891Z" fill="#2F2E41"/>
<rect x="398.602" y="318.776" width="100.357" height="101.494" fill="#222F65"/>
</svg>
