<svg width="426" height="437" viewBox="0 0 426 437" fill="none" xmlns="http://www.w3.org/2000/svg">
<path d="M212.83 436.545C330.22 436.545 425.383 338.949 425.383 218.558C425.383 98.1673 330.22 0.571289 212.83 0.571289C95.4394 0.571289 0.275879 98.1673 0.275879 218.558C0.275879 338.949 95.4394 436.545 212.83 436.545Z" fill="#E7ECFF"/>
<path d="M242.898 249.888C206.677 306.402 216.601 378.281 216.601 378.281C216.601 378.281 285.252 358.532 321.474 302.018C357.695 245.504 347.77 173.625 347.77 173.625C347.77 173.625 279.119 193.374 242.898 249.888Z" fill="#3F3D56"/>
<path d="M218.477 378.307C218.477 378.307 217.58 378.164 215.928 377.829C214.611 377.561 212.798 377.179 210.584 376.653C190.791 371.976 138.168 356.167 103.764 314.603C60.7042 262.557 62.5174 189.844 62.5174 189.844C62.5174 189.844 128.358 200.565 171.742 247.303C173.622 249.311 175.451 251.393 177.23 253.548C214.697 298.832 218.19 359.763 218.467 374.826C218.505 377.083 218.477 378.307 218.477 378.307Z" fill="#222F65"/>
<path fill-rule="evenodd" clip-rule="evenodd" d="M190.102 249.888C226.323 306.402 216.399 378.281 216.399 378.281C216.399 378.281 147.748 358.532 111.526 302.018C75.3052 245.504 85.2298 173.625 85.2298 173.625C85.2298 173.625 153.881 193.374 190.102 249.888Z" stroke="#3F3D56" stroke-width="2"/>
<path opacity="0.1" d="M216.5 374.877C215.541 376.051 214.694 377.053 213.998 377.874C212.455 379.658 211.58 380.594 211.58 380.594C211.58 380.594 210.518 379.239 208.73 376.7C198.919 362.824 167.361 313.484 169.797 256.491C169.929 253.504 170.145 250.548 170.446 247.625C172.299 249.629 174.102 251.706 175.855 253.857C212.784 299.045 216.227 359.846 216.5 374.877Z" fill="black"/>
<path d="M271.2 260.669C268.311 328.039 218.695 380.594 218.695 380.594C218.695 380.594 173.762 323.92 176.651 256.55C179.539 189.18 229.155 136.625 229.155 136.625C229.155 136.625 274.088 193.298 271.2 260.669Z" fill="#222F65"/>
<path d="M218.785 378.281L229.066 138.938" stroke="#3F3D56" stroke-width="2"/>
<path d="M286.184 273.062V92.6875Z" fill="#3F3D56"/>
<path d="M286.184 273.062V92.6875" stroke="#3F3D56" stroke-width="2"/>
<path d="M286.184 106.562C293.124 106.562 298.75 100.868 298.75 93.8437C298.75 86.8194 293.124 81.125 286.184 81.125C279.244 81.125 273.618 86.8194 273.618 93.8437C273.618 100.868 279.244 106.562 286.184 106.562Z" fill="#3F3D56"/>
<path d="M286.184 144.719C286.184 144.719 284.431 105.882 248.486 110.396Z" fill="#3F3D56"/>
</svg>
